Patient4_TMGait_0pt8_01_left_33_EMG.mot
version=1
nRows=34
nColumns=33
inDegrees=no
endheader
time	1LAddLong	2LGlutMax	3LGlutMed	4LIliopsoas	5LSemiMemb	6LBicFemLong	7LRecFem	8LVastMed	9LVastLat	10LGasMed	11LTibAnt	12lTibPost	13LPeroneusLong	14LSol	15LExtDigLong	16LFlexDigLong	17RAddLong	18RGlutMax	19RGlutMed	20RIliopsoas	21RSemiMemb	22RBicFemLong	23RRecFem	24RVastMed	25RVastLat	26RGasMed	27RTibAnt	28RTibPost	29RPeroneusLong	30RSol	31RExtDigLong	32RFlexDigLong
37.145	0.00351	-0.2652	-0.36606	0.002136	0.007935	-0.002594	-0.11902	0.005035	-0.015564	0.14618	0.036926	-0.020599	0.22476	0.067749	0.019836	-0.013885	0.057983	0.087891	0.5011	-0.097656	0.8107	-0.2179	0.52521	0.12955	0.784	-0.007629	-0.5072	-0.005798	0.17593	-0.13931	-0.005341	-0.015411
37.146	0.00946	-0.21576	-0.38086	0.010071	0.013275	-0.006256	-0.10819	0.005341	-0.035248	0.2066	-0.001831	-0.016937	-0.13275	0.059509	0.001984	-0.014801	-0.021667	0.018005	0.57373	-0.17807	0.78583	-0.19073	0.55695	0.23331	0.20996	0.006409	0.10376	-0.00351	0.46631	-0.34241	-0.001221	-0.009613
37.147	0.005951	-0.16785	-0.35767	-0.016937	0.010376	-0.015259	-0.086212	0.012207	-0.043335	0.3714	-0.06012	-0.007629	0.13947	0.059662	0.014038	-0.015869	-0.050049	-0.030518	0.63553	-0.13702	0.5043	-0.072632	0.40665	0.22537	-0.31982	0.016937	0.11948	-0.001373	0.49545	-0.32928	-0.000763	-0.005341
37.148	0.007172	-0.1268	-0.46585	0.005951	0.016022	-0.000916	-0.10239	0.009766	-0.061493	0.77515	-0.024567	0.002594	0.70877	0.14069	0.079498	-0.018311	-0.080719	-0.10452	0.85327	-0.050049	0.57983	-0.061493	0.057373	0.14908	-0.85281	0.005798	0.27527	0.001373	0.27527	-0.21286	0.006256	-0.01297
37.149	0.005035	-0.069122	-0.42206	0.005646	0.015717	-0.003052	-0.12039	0.011597	-0.071869	0.82581	0.029602	-0.001221	0.016174	0.11047	0.13138	0.034332	-0.074158	-0.097656	1.0062	0.22842	0.67261	-0.21042	-0.19516	0.18982	-1.2744	-0.000763	0.27817	-0.003662	0.22797	-0.17288	-0.001678	-0.017853
37.15	0.009308	-0.037384	-0.31479	0.015869	0.019684	0.018005	-0.112	0.004883	-0.065155	-0.10437	-0.018768	0.009155	-0.28839	-0.094757	0.059967	0.02182	-0.089722	-0.083923	1.1308	0.38879	0.6366	-0.16205	-0.45929	0.27649	-1.4035	-0.00061	0.3775	-0.001984	0.21225	-0.16068	0.004272	-0.016174
37.151	0.012817	-0.040741	-0.39459	0.019531	0.012512	0.034485	-0.12695	0.011749	-0.071411	-0.42999	-0.068207	0.001678	-0.17746	-0.16632	-0.071106	-1.0539	-0.084381	-0.0383	0.95139	0.22705	0.63309	-0.12054	-0.85495	0.56747	-0.94864	0.011139	0.12497	-0.009003	0.11246	-0.012665	-0.000305	-0.005493
37.152	0.00351	-0.011749	-0.36652	-0.002747	0.017548	0.027008	-0.12558	0.005798	-0.072021	-0.4953	-0.049438	-0.01358	0.040741	0.014648	-0.10834	0.42969	-0.011444	-0.043793	1.0727	0.074463	0.78064	-0.10681	-0.39047	0.73196	-0.74707	0	-0.16022	-0.006256	0.15991	0.092773	0.001221	-0.00473
37.153	0.01236	-0.040741	-0.43716	0.003052	0.013428	0.062256	-0.14038	0.006409	-0.066376	-0.52399	-0.0177	-0.021057	-0.09613	0.056152	-0.10742	0.8847	0.033417	0.057373	1.4925	-0.085754	0.62714	-0.022583	0.05249	0.45548	-0.48386	-0.004578	-0.028381	-0.003967	0.2713	0.15488	0.000916	0.000763
37.154	0.001831	-0.035553	-0.31952	-0.003815	0.009308	0.073547	-0.16632	0.00885	-0.062866	-0.3537	-0.028839	-0.29862	-0.050659	0.1506	-0.12848	-0.26169	0.033417	0.14816	1.6936	-0.080261	0.63187	0.026093	0.11124	0.28076	-0.27802	-0.01236	0.090942	-0.002747	0.22919	0.29068	-0.001526	-0.001526
37.155	0.005188	-0.005951	-0.23544	-0.013428	-0.000458	0.019836	-0.18188	-0.005951	-0.065613	-0.21103	-0.005798	0.47302	0.085144	0.045929	-0.028381	0.03006	0.018311	0.13763	1.5091	0.034485	0.7309	-0.018768	-0.040588	0.066376	-0.17929	-0.014801	0.32242	-0.006409	0.12528	0.35004	-0.001373	-0.003662
37.156	0.00473	0.047302	-0.19455	-0.008698	-0.002747	-0.007019	-0.18463	-0.000916	-0.060425	-0.097961	-0.001373	0.1004	0.22125	-0.15549	-0.001068	-0.19745	0.057678	0.21362	1.4638	0.19318	0.45044	-0.032349	-0.19302	-0.24124	-0.11475	-0.010681	0.26123	-0.005951	0.093384	0.24612	-0.006409	-0.00473
37.157	0.01709	0.026245	-0.11154	-0.013123	-0.004425	-0.000916	-0.20111	0.003052	-0.060425	0.024719	-0.004578	-0.095215	0.2356	-0.47775	0.032959	0.26871	0.021057	0.27588	1.2717	0.14664	0.13855	0.15091	-0.32227	-0.14374	0.006714	-0.002899	0.048828	-0.005646	0.18005	0.18967	-0.001373	-0.007172
37.158	0.010834	0.010223	-0.22537	-0.00946	-0.020447	-0.041046	-0.20035	0.000916	-0.065155	-0.1297	-0.000763	-0.031433	0.061035	-0.55557	0.041046	-0.10941	0.045471	0.061798	1.1217	-0.023193	0.30411	0.44586	-0.31784	-0.005188	0.70984	-0.007935	0.06958	-0.002747	0.19394	0.089264	0.001373	-0.017395
37.159	0.009766	0.035858	-0.19547	-0.01297	-0.013885	-0.095367	-0.19669	0.003204	-0.089264	-0.2594	0.007477	-0.077057	0.046539	-0.46921	0.012054	-0.036316	-0.013275	-0.000763	1.2393	-0.11963	0.31479	0.84579	-0.34119	-0.11765	0.76233	-0.001678	0.23438	-0.002136	0.13062	0.077209	0.000458	-0.018158
37.16	0.015106	0.079346	-0.12497	0.014191	-0.001831	-0.11429	-0.20065	0.002441	-0.066528	-0.36758	0.011597	-0.054169	-0.031128	-0.072937	-0.015411	-0.022583	-0.080719	-0.087738	1.1063	-0.11307	0.63263	0.94162	-0.32211	-0.10666	0.1712	-0.001678	0.41565	-0.002747	0.013885	0.033264	-0.005188	-0.017395
37.161	0.018311	0.048981	-0.080261	0.013885	0.003204	-0.090179	-0.20798	-0.002289	-0.073547	-0.40955	0.017395	-0.007477	-0.10895	0.20737	-0.030212	-0.036621	-0.14084	-0.20798	0.98496	0.010834	0.9288	0.89355	-0.26077	-0.18204	-0.61066	-0.001831	0.49347	-0.003662	-0.024414	-0.008087	-0.000153	-0.015564
37.162	0.010834	0.059509	-0.055237	0	0.011444	0.001678	-0.20447	0.00946	-0.10178	-0.37338	0.01236	-0.003662	-0.1207	0.53192	-0.018463	-0.049133	-0.096588	-0.30014	0.91934	0.11749	0.75134	0.62424	-0.20157	-0.33905	-0.91476	0.002136	-0.33768	-0.004578	0.065308	-0.030518	-0.002747	-0.007477
37.163	-0.001526	0.0914	-0.029907	0.003204	0.030975	-0.01236	-0.1857	0.010223	-0.10864	-0.42084	0.005035	0.007935	-0.24292	0.34607	-0.011597	-0.029144	-0.091553	-0.29404	1.097	0.095825	0.74173	0.53253	-0.21622	-0.46967	-0.68954	0.000763	-0.42847	-0.004425	0.10284	-0.050507	-0.000305	-0.013123
37.164	0.010071	0.09903	0.066681	-0.000763	0.027771	0.009003	-0.22079	0.001068	-0.10696	-0.43839	0.005341	0.007324	-0.25406	0.064697	-0.009918	-0.030365	-0.065765	-0.26535	0.92804	0.032806	0.78201	0.36987	-0.39597	-0.1149	-0.29129	-0.006561	-0.13031	-0.003967	0.1387	-0.03891	0.000305	-0.009918
37.165	0.011292	0.095978	0.10986	0.001831	0.0177	0.046234	-0.20172	0.017548	-0.10269	-0.15701	0.014038	0.004272	-0.24948	0.076141	0.02594	-0.046539	0.000763	-0.18326	1.0614	-0.040131	0.80627	0.22034	-0.39322	-0.050659	-0.005035	-0.003204	0.075836	-0.007172	0.19684	-0.060883	-0.000458	-0.017242
37.166	0.014496	0.17303	0.2449	0.016479	0.005341	0.076294	-0.21225	0.005493	-0.092773	0.20508	-0.008087	-0.001831	-0.097198	-0.080414	0.057983	-0.027771	0.092163	-0.33173	0.92606	-0.050659	0.74829	0.23605	-0.64606	-0.057373	0.2713	-0.000916	0.11505	-0.002289	0.079193	-0.098114	-0.000763	-0.0177
37.167	0.012054	0.14984	0.24902	-0.00473	0.031738	0.083313	-0.22415	0.006409	-0.095062	0.23773	-0.019836	-0.083313	0.011139	-0.016327	0.035553	-0.030975	0.14313	-0.45471	0.64697	-0.042725	0.42389	0.27771	-0.72769	-0.17044	0.55924	-0.00946	-0.044556	-0.002136	0.17792	-0.078125	-0.002136	-0.010986
37.168	0.008392	0.13229	0.28488	-0.007935	-0.005951	0.098267	-0.22293	0.007324	-0.08316	0.34561	-0.016022	0.088501	0.097351	0.41992	0.038757	-0.99823	0.07843	-0.51392	0.86762	-0.066833	0.3923	0.1387	-0.54169	-0.50415	0.90927	-0.01236	-0.010071	-0.002899	0.15701	-0.077667	-0.000916	-0.008698
37.169	0.011902	0.16495	0.31067	-0.009613	0.00824	0.022278	-0.22903	0.006104	-0.08667	0.49515	-0.013428	0.23346	0.13077	0.28473	0.020142	0.45898	0.045929	-0.39917	1.0608	-0.043488	0.28244	0.23239	-0.2684	-0.51483	1.0858	-0.013885	0.036926	-0.004578	-0.21088	-0.073395	0.000763	-0.000916
37.17	0.00946	0.16022	0.3537	-0.019379	0.012817	-0.003815	-0.21637	0.007629	-0.079651	0.69946	-0.007629	-0.049286	0.15549	0.10773	-0.034485	0.050049	0.063324	-0.32333	0.90729	0.007324	0.2417	0.28427	-0.079346	-0.49988	0.71167	-0.005493	0.014954	-0.000763	-0.22751	-0.013275	-0.000153	-0.001984
37.171	0.005188	0.16327	0.31586	-0.006256	0.001068	-0.051117	-0.22492	0.008392	-0.081482	0.24078	0.001678	0.071564	0.14191	0.072174	-0.0383	-0.16327	0.034485	-0.24353	0.31799	-0.052795	0.46097	0.38757	-0.32959	-0.47348	0.36728	0.002136	-0.054321	0.00061	0.19821	0.058746	0.002289	-0.002289
37.172	0.007324	0.15991	0.38818	0.01709	0.009918	-0.061646	-0.20813	0.003815	-0.07782	-0.19836	-0.003052	0.002289	0.10864	-0.1619	-0.048981	0.37033	0	-0.17532	-0.2684	-0.053101	0.56305	0.38147	-0.51041	-0.57754	0.2684	0.003815	0.014954	0.001678	-0.18036	0.057678	0.000763	-0.007019
37.173	0.007172	0.18219	0.42084	0.000916	0.011597	-0.036926	-0.25085	0.00885	-0.087128	-0.34271	-0.003052	-0.017242	0.07019	-0.26215	-0.070038	0.003662	0.036316	-0.26459	-0.18753	-0.016785	0.57526	0.30914	-0.5661	-0.70465	0.64316	-0.001526	0.048828	-0.001526	-0.008545	-0.13046	0.003967	-0.005341
37.174	0.011139	0.18036	0.42969	0.002747	0.014343	0.00412	-0.24414	0.004425	-0.067139	-0.21057	0.00824	-0.017242	-0.002899	-0.041504	-0.056763	-0.025024	-0.008545	-0.35584	0.11978	-0.010986	0.34439	0.38147	-0.73181	-0.51773	0.8876	0.00061	0.08667	-0.024109	0.13077	-0.27893	-0.002441	-0.015259
37.175	0.006409	0.18265	0.439	0.002899	0.007935	0.003662	-0.22308	0.006104	-0.076294	-0.33783	0.01709	-0.011139	-0.0383	-0.20264	-0.037537	-0.02594	-0.048218	-0.36713	1.2094	-0.014496	0.2359	0.46585	-0.62714	-0.25192	0.45776	-0.001678	0.32303	-0.014191	0.31479	-0.20187	-0.00061	-0.008392
37.176	0.002289	0.13245	0.40878	0.01236	0.018463	0.032501	-0.22217	0.005188	-0.079498	-0.39642	0.019684	-0.007935	-0.015106	0.055695	-0.028229	-0.040131	-0.050812	-0.30136	1.4897	0.004883	0.22888	0.5275	-0.48263	-0.12085	-0.13214	0.000305	0.37888	0.002289	0.33096	-0.24033	0.000305	-0.007019
37.177	0.005341	0.1384	0.47577	0.005188	0.01297	0.10895	-0.23682	0.006866	-0.06485	-0.46631	0.015717	-0.009003	0.01358	0.45487	-0.004272	-0.018463	-0.045319	-0.24597	1.409	0.036163	0.31937	0.54428	-0.42206	-0.32379	-0.33203	-0.00061	0.50446	-0.001068	-0.15595	-0.24704	-0.010834	-0.007477
37.178	0.005341	0.15366	0.59052	0.001678	-0.010376	0.22812	-0.22614	0.009155	-0.061951	-0.23727	0.008087	-0.009918	0.065308	0.41672	0.02243	0.014648	-0.007935	-0.091858	0.93018	-0.005798	0.42267	0.49911	-0.80536	-0.078278	-0.43808	-0.011292	0.74799	0.000305	-0.38895	-0.16693	0.001068	-0.010376
